<?xml version="1.0" standalone="no"?>
<svg xmlns:xlink="http://www.w3.org/1999/xlink" id="wave" style="transform:rotate(180deg); transition: 0.3s" viewBox="0 0 1440 490" version="1.1" xmlns="http://www.w3.org/2000/svg"><defs><linearGradient id="sw-gradient-0" x1="0" x2="0" y1="1" y2="0"><stop stop-color="rgba(49.603, 156.883, 255, 1)" offset="0%"/><stop stop-color="rgba(208.818, 238.163, 245.808, 1)" offset="100%"/></linearGradient></defs><path style="transform:translate(0, 0px); opacity:1" fill="url(#sw-gradient-0)" d="M0,343L80,310.3C160,278,320,212,480,163.3C640,114,800,82,960,89.8C1120,98,1280,147,1440,138.8C1600,131,1760,65,1920,106.2C2080,147,2240,294,2400,367.5C2560,441,2720,441,2880,392C3040,343,3200,245,3360,171.5C3520,98,3680,49,3840,24.5C4000,0,4160,0,4320,49C4480,98,4640,196,4800,212.3C4960,229,5120,163,5280,163.3C5440,163,5600,229,5760,277.7C5920,327,6080,359,6240,383.8C6400,408,6560,425,6720,424.7C6880,425,7040,408,7200,367.5C7360,327,7520,261,7680,236.8C7840,212,8000,229,8160,245C8320,261,8480,278,8640,261.3C8800,245,8960,196,9120,187.8C9280,180,9440,212,9600,261.3C9760,310,9920,376,10080,343C10240,310,10400,180,10560,106.2C10720,33,10880,16,11040,49C11200,82,11360,163,11440,204.2L11520,245L11520,490L11440,490C11360,490,11200,490,11040,490C10880,490,10720,490,10560,490C10400,490,10240,490,10080,490C9920,490,9760,490,9600,490C9440,490,9280,490,9120,490C8960,490,8800,490,8640,490C8480,490,8320,490,8160,490C8000,490,7840,490,7680,490C7520,490,7360,490,7200,490C7040,490,6880,490,6720,490C6560,490,6400,490,6240,490C6080,490,5920,490,5760,490C5600,490,5440,490,5280,490C5120,490,4960,490,4800,490C4640,490,4480,490,4320,490C4160,490,4000,490,3840,490C3680,490,3520,490,3360,490C3200,490,3040,490,2880,490C2720,490,2560,490,2400,490C2240,490,2080,490,1920,490C1760,490,1600,490,1440,490C1280,490,1120,490,960,490C800,490,640,490,480,490C320,490,160,490,80,490L0,490Z"/><defs><linearGradient id="sw-gradient-1" x1="0" x2="0" y1="1" y2="0"><stop stop-color="rgba(24.669, 134.903, 250.361, 1)" offset="0%"/><stop stop-color="rgba(78.388, 203.168, 250.361, 1)" offset="100%"/></linearGradient></defs><path style="transform:translate(0, 50px); opacity:0.9" fill="url(#sw-gradient-1)" d="M0,343L80,343C160,343,320,343,480,310.3C640,278,800,212,960,212.3C1120,212,1280,278,1440,318.5C1600,359,1760,376,1920,334.8C2080,294,2240,196,2400,130.7C2560,65,2720,33,2880,89.8C3040,147,3200,294,3360,310.3C3520,327,3680,212,3840,196C4000,180,4160,261,4320,253.2C4480,245,4640,147,4800,163.3C4960,180,5120,310,5280,367.5C5440,425,5600,408,5760,408.3C5920,408,6080,425,6240,400.2C6400,376,6560,310,6720,277.7C6880,245,7040,245,7200,220.5C7360,196,7520,147,7680,171.5C7840,196,8000,294,8160,277.7C8320,261,8480,131,8640,89.8C8800,49,8960,98,9120,147C9280,196,9440,245,9600,277.7C9760,310,9920,327,10080,343C10240,359,10400,376,10560,359.3C10720,343,10880,294,11040,253.2C11200,212,11360,180,11440,163.3L11520,147L11520,490L11440,490C11360,490,11200,490,11040,490C10880,490,10720,490,10560,490C10400,490,10240,490,10080,490C9920,490,9760,490,9600,490C9440,490,9280,490,9120,490C8960,490,8800,490,8640,490C8480,490,8320,490,8160,490C8000,490,7840,490,7680,490C7520,490,7360,490,7200,490C7040,490,6880,490,6720,490C6560,490,6400,490,6240,490C6080,490,5920,490,5760,490C5600,490,5440,490,5280,490C5120,490,4960,490,4800,490C4640,490,4480,490,4320,490C4160,490,4000,490,3840,490C3680,490,3520,490,3360,490C3200,490,3040,490,2880,490C2720,490,2560,490,2400,490C2240,490,2080,490,1920,490C1760,490,1600,490,1440,490C1280,490,1120,490,960,490C800,490,640,490,480,490C320,490,160,490,80,490L0,490Z"/></svg>